<svg xmlns="http://www.w3.org/2000/svg" height="296.587" width="461.787"><path d="M28.143 272.878c3.469 0 5.623-.484 6.623-1.544.984-1.032 1.497-1.867 1.497-2.483 0-.67-.513-1.517-1.497-2.55-1-1.066-3.154-1.597-6.623-1.597H12.957v8.174h15.186m-15.186 23.394H.083L0 284.515V267.2l.083-11.77h34.068c5.793 0 9.766 1.017 11.868 3.045 2.082 2.065 3.134 4.96 3.134 8.725v3.291c0 3.773-1.052 6.665-3.134 8.7-2.102 2.025-6.075 2.996-11.868 2.996H12.957v14.085M92.97 271.235c0-2.272-.53-3.901-1.504-4.933-.99-1.067-3.206-1.597-6.57-1.597h-7.275c-3.118 0-5.241.632-6.309 1.764-1.073 1.1-1.547 2.678-1.547 4.766v9.322c0 1.992.474 3.595 1.547 4.694 1.068 1.167 3.191 1.729 6.31 1.729h7.274c3.364 0 5.555-.55 6.539-1.563.865-.97 1.414-2.665 1.536-4.829v-9.353m9.743 22.075c-2.072 1.958-6.07 2.962-11.797 2.962H71.945c-5.72 0-9.739-.92-11.844-2.962-2.281-1.882-3.343-4.895-3.343-8.795V267.2c0-3.927 1.062-6.892 3.343-8.854 2.105-1.899 6.124-2.917 11.844-2.917h18.972c5.727 0 9.725 1.018 11.797 3.046 2.125 2.065 3.223 4.96 3.223 8.725v17.315c0 3.83-1.098 6.697-3.223 8.795M159.383 293.31c-2.108 1.958-6.05 2.962-11.759 2.962h-18.93c-5.717 0-9.697-.92-11.936-2.962-2.223-1.882-3.331-4.895-3.331-8.795V267.2c0-3.927 1.108-6.892 3.33-8.854 2.24-1.899 6.22-2.917 11.936-2.917h18.931c5.71 0 9.65 1.018 11.759 3.046 2.185 2.065 3.226 4.96 3.226 8.725v4.035h-12.944c0-2.272-.509-3.901-1.457-4.933-1.025-1.067-3.18-1.597-6.568-1.597h-7.272c-3.134 0-5.258.632-6.382 1.764-1.03 1.1-1.604 2.678-1.604 4.766v9.322c0 1.992.573 3.595 1.604 4.694 1.124 1.167 3.248 1.729 6.382 1.729h7.272c3.388 0 5.543-.55 6.568-1.563.948-.97 1.457-2.665 1.457-4.86h12.944v3.958c0 3.83-1.041 6.697-3.226 8.795M183.055 296.272h-12.819l-.09-11.757V267.2l.09-11.77h12.819v15.651h23.242V255.43h13.043v40.843h-13.043v-15.913h-23.242v15.913M243.479 280.359h-3.686c.074 2.107.587 3.793 1.671 4.892 1.03 1.166 3.184 1.729 6.336 1.729h28.237v9.292h-33.92c-5.732 0-9.685-.92-11.965-2.962-2.173-1.88-3.3-4.894-3.3-8.795V267.2c0-3.927 1.127-6.892 3.3-8.854 2.28-1.899 6.233-2.917 11.965-2.917h33.92v9.276H247.8c-3.152 0-5.305.632-6.336 1.764-1.084 1.1-1.597 2.6-1.67 4.612h36.243v9.278H243.48M375.475 264.704h-17.742v-9.275h49.114v9.275h-18.49v31.568h-12.882v-31.568M425.58 278.785v8.161h15.179c3.42 0 5.613-.529 6.598-1.528.976-1.07 1.46-1.896 1.46-2.5 0-.665-.484-1.566-1.46-2.56-.985-1.105-3.178-1.573-6.598-1.573H425.58m0-9.29h21.217c5.726 0 9.703 1.035 11.8 3.101 2.134 1.963 3.191 4.892 3.191 8.689v3.229c0 3.765-1.057 6.697-3.19 8.692-2.098 2.034-6.075 3.066-11.8 3.066h-34.114l-.085-11.758v-17.379l.085-11.736h12.896v14.096M296.007 274.81c0-5.113 4.502-4.547 4.502-4.547h13.043v8.626h-13.135s-4.41.165-4.41-4.08m43.469 4.08h-13.143v-8.626h13.068s4.511-.566 4.511 4.546c0 4.245-4.436 4.08-4.436 4.08m6.86-17.287h-20.003v-6.437h-12.718v6.437h-20.478s-11.7.401-11.7 12.824c0 12.52 12.008 12.622 12.008 12.622h20.17v9.539h12.718v-9.54h19.682s11.966-.101 11.966-12.62c0-12.424-11.645-12.825-11.645-12.825" fill="#0d0b0b"/><path d="M206.124.005v18.912H185.06v18.898h-21.232v19.464h-21.247v64.502s37.414 32.334 42.728 37.031v68.631h91.955v-68.319c5.272-4.61 42.525-37.376 42.525-37.376v-64.47h-21.122v-19.28h-21.403v-19.08h-21.37V.004h-49.77" fill="#fff"/><path d="M200.603 212.389h18.036V127.44h-18.036v84.949M221.99 212.389h18.04V109.892h-18.04v102.497M243.35 212.389h18.002V127.44h-18.001v84.949" fill="#fcd006"/><path d="M175.94 130.805l-18.01-15.217V72.113h18.01v58.692M197.348 149.753l-18.076-16.768V52.853h18.076v96.9M200.603 124.777h18.036V33.901h-18.036v90.876M221.99 106.164h18.04v-91.24h-18.04v91.24M286.075 130.805l18.012-15.217V72.113h-18.012v58.692M264.713 149.753l17.962-16.768V52.853h-17.962v96.9M243.35 124.777h18.002V33.901h-18.001v90.876" fill="#0d0b0b"/></svg>